{
  "header": {
    "format": 1,
    "track_count": 6,
    "division": 480
  },
  "tracks": [
    {
      "name": "Hard Kick",
      "events": [
        {
          "delta_time": 0,
          "type": "note_on",
          "channel": 9,
          "note": 36,
          "velocity": 127
        },
        {
          "delta_time": 120,
          "type": "note_off",
          "channel": 9,
          "note": 36,
          "velocity": 0
        },
        {
          "delta_time": 360,
          "type": "note_on",
          "channel": 9,
          "note": 36,
          "velocity": 127
        },
        {
          "delta_time": 120,
          "type": "note_off",
          "channel": 9,
          "note": 36,
          "velocity": 0
        },
        {
          "delta_time": 360,
          "type": "note_on",
          "channel": 9,
          "note": 36,
          "velocity": 127
        },
        {
          "delta_time": 120,
          "type": "note_off",
          "channel": 9,
          "note": 36,
          "velocity": 0
        },
        {
          "delta_time": 360,
          "type": "note_on",
          "channel": 9,
          "note": 36,
          "velocity": 127
        },
        {
          "delta_time": 120,
          "type": "note_off",
          "channel": 9,
          "note": 36,
          "velocity": 0
        },
        {
          "delta_time": 360,
          "type": "note_on",
          "channel": 9,
          "note": 36,
          "velocity": 127
        },
        {
          "delta_time": 120,
          "type": "note_off",
          "channel": 9,
          "note": 36,
          "velocity": 0
        },
        {
          "delta_time": 360,
          "type": "note_on",
          "channel": 9,
          "note": 36,
          "velocity": 127
        },
        {
          "delta_time": 120,
          "type": "note_off",
          "channel": 9,
          "note": 36,
          "velocity": 0
        },
        {
          "delta_time": 360,
          "type": "note_on",
          "channel": 9,
          "note": 36,
          "velocity": 127
        },
        {
          "delta_time": 120,
          "type": "note_off",
          "channel": 9,
          "note": 36,
          "velocity": 0
        },
        {
          "delta_time": 360,
          "type": "note_on",
          "channel": 9,
          "note": 36,
          "velocity": 127
        },
        {
          "delta_time": 120,
          "type": "note_off",
          "channel": 9,
          "note": 36,
          "velocity": 0
        },
        {
          "delta_time": 360,
          "type": "note_on",
          "channel": 9,
          "note": 36,
          "velocity": 127
        },
        {
          "delta_time": 120,
          "type": "note_off",
          "channel": 9,
          "note": 36,
          "velocity": 0
        },
        {
          "delta_time": 360,
          "type": "note_on",
          "channel": 9,
          "note": 36,
          "velocity": 127
        },
        {
          "delta_time": 120,
          "type": "note_off",
          "channel": 9,
          "note": 36,
          "velocity": 0
        },
        {
          "delta_time": 360,
          "type": "note_on",
          "channel": 9,
          "note": 36,
          "velocity": 127
        },
        {
          "delta_time": 120,
          "type": "note_off",
          "channel": 9,
          "note": 36,
          "velocity": 0
        },
        {
          "delta_time": 360,
          "type": "note_on",
          "channel": 9,
          "note": 36,
          "velocity": 127
        },
        {
          "delta_time": 120,
          "type": "note_off",
          "channel": 9,
          "note": 36,
          "velocity": 0
        },
        {
          "delta_time": 360,
          "type": "note_on",
          "channel": 9,
          "note": 36,
          "velocity": 127
        },
        {
          "delta_time": 120,
          "type": "note_off",
          "channel": 9,
          "note": 36,
          "velocity": 0
        },
        {
          "delta_time": 360,
          "type": "note_on",
          "channel": 9,
          "note": 36,
          "velocity": 127
        },
        {
          "delta_time": 120,
          "type": "note_off",
          "channel": 9,
          "note": 36,
          "velocity": 0
        },
        {
          "delta_time": 360,
          "type": "note_on",
          "channel": 9,
          "note": 36,
          "velocity": 127
        },
        {
          "delta_time": 120,
          "type": "note_off",
          "channel": 9,
          "note": 36,
          "velocity": 0
        },
        {
          "delta_time": 360,
          "type": "note_on",
          "channel": 9,
          "note": 36,
          "velocity": 127
        },
        {
          "delta_time": 120,
          "type": "note_off",
          "channel": 9,
          "note": 36,
          "velocity": 0
        },
        {
          "delta_time": 360,
          "type": "note_on",
          "channel": 9,
          "note": 36,
          "velocity": 127
        },
        {
          "delta_time": 120,
          "type": "note_off",
          "channel": 9,
          "note": 36,
          "velocity": 0
        },
        {
          "delta_time": 360,
          "type": "note_on",
          "channel": 9,
          "note": 36,
          "velocity": 127
        },
        {
          "delta_time": 120,
          "type": "note_off",
          "channel": 9,
          "note": 36,
          "velocity": 0
        },
        {
          "delta_time": 360,
          "type": "note_on",
          "channel": 9,
          "note": 36,
          "velocity": 127
        },
        {
          "delta_time": 120,
          "type": "note_off",
          "channel": 9,
          "note": 36,
          "velocity": 0
        },
        {
          "delta_time": 360,
          "type": "note_on",
          "channel": 9,
          "note": 36,
          "velocity": 127
        },
        {
          "delta_time": 120,
          "type": "note_off",
          "channel": 9,
          "note": 36,
          "velocity": 0
        },
        {
          "delta_time": 360,
          "type": "note_on",
          "channel": 9,
          "note": 36,
          "velocity": 127
        },
        {
          "delta_time": 120,
          "type": "note_off",
          "channel": 9,
          "note": 36,
          "velocity": 0
        },
        {
          "delta_time": 360,
          "type": "note_on",
          "channel": 9,
          "note": 36,
          "velocity": 127
        },
        {
          "delta_time": 120,
          "type": "note_off",
          "channel": 9,
          "note": 36,
          "velocity": 0
        },
        {
          "delta_time": 360,
          "type": "note_on",
          "channel": 9,
          "note": 36,
          "velocity": 127
        },
        {
          "delta_time": 120,
          "type": "note_off",
          "channel": 9,
          "note": 36,
          "velocity": 0
        },
        {
          "delta_time": 360,
          "type": "note_on",
          "channel": 9,
          "note": 36,
          "velocity": 127
        },
        {
          "delta_time": 120,
          "type": "note_off",
          "channel": 9,
          "note": 36,
          "velocity": 0
        },
        {
          "delta_time": 360,
          "type": "note_on",
          "channel": 9,
          "note": 36,
          "velocity": 127
        },
        {
          "delta_time": 120,
          "type": "note_off",
          "channel": 9,
          "note": 36,
          "velocity": 0
        },
        {
          "delta_time": 360,
          "type": "note_on",
          "channel": 9,
          "note": 36,
          "velocity": 127
        },
        {
          "delta_time": 120,
          "type": "note_off",
          "channel": 9,
          "note": 36,
          "velocity": 0
        },
        {
          "delta_time": 360,
          "type": "note_on",
          "channel": 9,
          "note": 36,
          "velocity": 127
        },
        {
          "delta_time": 120,
          "type": "note_off",
          "channel": 9,
          "note": 36,
          "velocity": 0
        },
        {
          "delta_time": 360,
          "type": "note_on",
          "channel": 9,
          "note": 36,
          "velocity": 127
        },
        {
          "delta_time": 120,
          "type": "note_off",
          "channel": 9,
          "note": 36,
          "velocity": 0
        },
        {
          "delta_time": 360,
          "type": "note_on",
          "channel": 9,
          "note": 36,
          "velocity": 127
        },
        {
          "delta_time": 120,
          "type": "note_off",
          "channel": 9,
          "note": 36,
          "velocity": 0
        },
        {
          "delta_time": 360,
          "type": "note_on",
          "channel": 9,
          "note": 36,
          "velocity": 127
        },
        {
          "delta_time": 120,
          "type": "note_off",
          "channel": 9,
          "note": 36,
          "velocity": 0
        },
        {
          "delta_time": 360,
          "type": "note_on",
          "channel": 9,
          "note": 36,
          "velocity": 127
        },
        {
          "delta_time": 120,
          "type": "note_off",
          "channel": 9,
          "note": 36,
          "velocity": 0
        }
      ]
    },
    {
      "name": "Backbeat Snare",
      "events": [
        {
          "delta_time": 480,
          "type": "note_on",
          "channel": 9,
          "note": 38,
          "velocity": 115
        },
        {
          "delta_time": 120,
          "type": "note_off",
          "channel": 9,
          "note": 38,
          "velocity": 0
        },
        {
          "delta_time": 840,
          "type": "note_on",
          "channel": 9,
          "note": 38,
          "velocity": 115
        },
        {
          "delta_time": 120,
          "type": "note_off",
          "channel": 9,
          "note": 38,
          "velocity": 0
        },
        {
          "delta_time": 840,
          "type": "note_on",
          "channel": 9,
          "note": 38,
          "velocity": 115
        },
        {
          "delta_time": 120,
          "type": "note_off",
          "channel": 9,
          "note": 38,
          "velocity": 0
        },
        {
          "delta_time": 840,
          "type": "note_on",
          "channel": 9,
          "note": 38,
          "velocity": 115
        },
        {
          "delta_time": 120,
          "type": "note_off",
          "channel": 9,
          "note": 38,
          "velocity": 0
        },
        {
          "delta_time": 840,
          "type": "note_on",
          "channel": 9,
          "note": 38,
          "velocity": 115
        },
        {
          "delta_time": 120,
          "type": "note_off",
          "channel": 9,
          "note": 38,
          "velocity": 0
        },
        {
          "delta_time": 840,
          "type": "note_on",
          "channel": 9,
          "note": 38,
          "velocity": 115
        },
        {
          "delta_time": 120,
          "type": "note_off",
          "channel": 9,
          "note": 38,
          "velocity": 0
        },
        {
          "delta_time": 840,
          "type": "note_on",
          "channel": 9,
          "note": 38,
          "velocity": 115
        },
        {
          "delta_time": 120,
          "type": "note_off",
          "channel": 9,
          "note": 38,
          "velocity": 0
        },
        {
          "delta_time": 840,
          "type": "note_on",
          "channel": 9,
          "note": 38,
          "velocity": 115
        },
        {
          "delta_time": 120,
          "type": "note_off",
          "channel": 9,
          "note": 38,
          "velocity": 0
        },
        {
          "delta_time": 840,
          "type": "note_on",
          "channel": 9,
          "note": 38,
          "velocity": 115
        },
        {
          "delta_time": 120,
          "type": "note_off",
          "channel": 9,
          "note": 38,
          "velocity": 0
        },
        {
          "delta_time": 840,
          "type": "note_on",
          "channel": 9,
          "note": 38,
          "velocity": 115
        },
        {
          "delta_time": 120,
          "type": "note_off",
          "channel": 9,
          "note": 38,
          "velocity": 0
        },
        {
          "delta_time": 840,
          "type": "note_on",
          "channel": 9,
          "note": 38,
          "velocity": 115
        },
        {
          "delta_time": 120,
          "type": "note_off",
          "channel": 9,
          "note": 38,
          "velocity": 0
        },
        {
          "delta_time": 840,
          "type": "note_on",
          "channel": 9,
          "note": 38,
          "velocity": 115
        },
        {
          "delta_time": 120,
          "type": "note_off",
          "channel": 9,
          "note": 38,
          "velocity": 0
        },
        {
          "delta_time": 840,
          "type": "note_on",
          "channel": 9,
          "note": 38,
          "velocity": 115
        },
        {
          "delta_time": 120,
          "type": "note_off",
          "channel": 9,
          "note": 38,
          "velocity": 0
        },
        {
          "delta_time": 840,
          "type": "note_on",
          "channel": 9,
          "note": 38,
          "velocity": 115
        },
        {
          "delta_time": 120,
          "type": "note_off",
          "channel": 9,
          "note": 38,
          "velocity": 0
        },
        {
          "delta_time": 840,
          "type": "note_on",
          "channel": 9,
          "note": 38,
          "velocity": 115
        },
        {
          "delta_time": 120,
          "type": "note_off",
          "channel": 9,
          "note": 38,
          "velocity": 0
        },
        {
          "delta_time": 840,
          "type": "note_on",
          "channel": 9,
          "note": 38,
          "velocity": 115
        },
        {
          "delta_time": 120,
          "type": "note_off",
          "channel": 9,
          "note": 38,
          "velocity": 0
        }
      ]
    },
    {
      "name": "Driving Hats",
      "events": [
        {
          "delta_time": 0,
          "type": "note_on",
          "channel": 9,
          "note": 42,
          "velocity": 90
        },
        {
          "delta_time": 120,
          "type": "note_off",
          "channel": 9,
          "note": 42,
          "velocity": 0
        },
        {
          "delta_time": 0,
          "type": "note_on",
          "channel": 9,
          "note": 42,
          "velocity": 80
        },
        {
          "delta_time": 120,
          "type": "note_off",
          "channel": 9,
          "note": 42,
          "velocity": 0
        },
        {
          "delta_time": 0,
          "type": "note_on",
          "channel": 9,
          "note": 42,
          "velocity": 90
        },
        {
          "delta_time": 120,
          "type": "note_off",
          "channel": 9,
          "note": 42,
          "velocity": 0
        },
        {
          "delta_time": 0,
          "type": "note_on",
          "channel": 9,
          "note": 42,
          "velocity": 80
        },
        {
          "delta_time": 120,
          "type": "note_off",
          "channel": 9,
          "note": 42,
          "velocity": 0
        },
        {
          "delta_time": 0,
          "type": "note_on",
          "channel": 9,
          "note": 42,
          "velocity": 90
        },
        {
          "delta_time": 120,
          "type": "note_off",
          "channel": 9,
          "note": 42,
          "velocity": 0
        },
        {
          "delta_time": 0,
          "type": "note_on",
          "channel": 9,
          "note": 42,
          "velocity": 80
        },
        {
          "delta_time": 120,
          "type": "note_off",
          "channel": 9,
          "note": 42,
          "velocity": 0
        },
        {
          "delta_time": 0,
          "type": "note_on",
          "channel": 9,
          "note": 42,
          "velocity": 90
        },
        {
          "delta_time": 120,
          "type": "note_off",
          "channel": 9,
          "note": 42,
          "velocity": 0
        },
        {
          "delta_time": 0,
          "type": "note_on",
          "channel": 9,
          "note": 42,
          "velocity": 80
        },
        {
          "delta_time": 120,
          "type": "note_off",
          "channel": 9,
          "note": 42,
          "velocity": 0
        },
        {
          "delta_time": 0,
          "type": "note_on",
          "channel": 9,
          "note": 42,
          "velocity": 90
        },
        {
          "delta_time": 120,
          "type": "note_off",
          "channel": 9,
          "note": 42,
          "velocity": 0
        },
        {
          "delta_time": 0,
          "type": "note_on",
          "channel": 9,
          "note": 42,
          "velocity": 80
        },
        {
          "delta_time": 120,
          "type": "note_off",
          "channel": 9,
          "note": 42,
          "velocity": 0
        },
        {
          "delta_time": 0,
          "type": "note_on",
          "channel": 9,
          "note": 42,
          "velocity": 90
        },
        {
          "delta_time": 120,
          "type": "note_off",
          "channel": 9,
          "note": 42,
          "velocity": 0
        },
        {
          "delta_time": 0,
          "type": "note_on",
          "channel": 9,
          "note": 42,
          "velocity": 80
        },
        {
          "delta_time": 120,
          "type": "note_off",
          "channel": 9,
          "note": 42,
          "velocity": 0
        },
        {
          "delta_time": 0,
          "type": "note_on",
          "channel": 9,
          "note": 42,
          "velocity": 90
        },
        {
          "delta_time": 120,
          "type": "note_off",
          "channel": 9,
          "note": 42,
          "velocity": 0
        },
        {
          "delta_time": 0,
          "type": "note_on",
          "channel": 9,
          "note": 42,
          "velocity": 80
        },
        {
          "delta_time": 120,
          "type": "note_off",
          "channel": 9,
          "note": 42,
          "velocity": 0
        },
        {
          "delta_time": 0,
          "type": "note_on",
          "channel": 9,
          "note": 42,
          "velocity": 90
        },
        {
          "delta_time": 120,
          "type": "note_off",
          "channel": 9,
          "note": 42,
          "velocity": 0
        },
        {
          "delta_time": 0,
          "type": "note_on",
          "channel": 9,
          "note": 42,
          "velocity": 80
        },
        {
          "delta_time": 120,
          "type": "note_off",
          "channel": 9,
          "note": 42,
          "velocity": 0
        },
        {
          "delta_time": 0,
          "type": "note_on",
          "channel": 9,
          "note": 42,
          "velocity": 90
        },
        {
          "delta_time": 120,
          "type": "note_off",
          "channel": 9,
          "note": 42,
          "velocity": 0
        },
        {
          "delta_time": 0,
          "type": "note_on",
          "channel": 9,
          "note": 42,
          "velocity": 80
        },
        {
          "delta_time": 120,
          "type": "note_off",
          "channel": 9,
          "note": 42,
          "velocity": 0
        },
        {
          "delta_time": 0,
          "type": "note_on",
          "channel": 9,
          "note": 42,
          "velocity": 90
        },
        {
          "delta_time": 120,
          "type": "note_off",
          "channel": 9,
          "note": 42,
          "velocity": 0
        },
        {
          "delta_time": 0,
          "type": "note_on",
          "channel": 9,
          "note": 42,
          "velocity": 80
        },
        {
          "delta_time": 120,
          "type": "note_off",
          "channel": 9,
          "note": 42,
          "velocity": 0
        },
        {
          "delta_time": 0,
          "type": "note_on",
          "channel": 9,
          "note": 42,
          "velocity": 90
        },
        {
          "delta_time": 120,
          "type": "note_off",
          "channel": 9,
          "note": 42,
          "velocity": 0
        },
        {
          "delta_time": 0,
          "type": "note_on",
          "channel": 9,
          "note": 42,
          "velocity": 80
        },
        {
          "delta_time": 120,
          "type": "note_off",
          "channel": 9,
          "note": 42,
          "velocity": 0
        },
        {
          "delta_time": 0,
          "type": "note_on",
          "channel": 9,
          "note": 42,
          "velocity": 90
        },
        {
          "delta_time": 120,
          "type": "note_off",
          "channel": 9,
          "note": 42,
          "velocity": 0
        },
        {
          "delta_time": 0,
          "type": "note_on",
          "channel": 9,
          "note": 42,
          "velocity": 80
        },
        {
          "delta_time": 120,
          "type": "note_off",
          "channel": 9,
          "note": 42,
          "velocity": 0
        },
        {
          "delta_time": 0,
          "type": "note_on",
          "channel": 9,
          "note": 42,
          "velocity": 90
        },
        {
          "delta_time": 120,
          "type": "note_off",
          "channel": 9,
          "note": 42,
          "velocity": 0
        },
        {
          "delta_time": 0,
          "type": "note_on",
          "channel": 9,
          "note": 42,
          "velocity": 80
        },
        {
          "delta_time": 120,
          "type": "note_off",
          "channel": 9,
          "note": 42,
          "velocity": 0
        },
        {
          "delta_time": 0,
          "type": "note_on",
          "channel": 9,
          "note": 42,
          "velocity": 90
        },
        {
          "delta_time": 120,
          "type": "note_off",
          "channel": 9,
          "note": 42,
          "velocity": 0
        },
        {
          "delta_time": 0,
          "type": "note_on",
          "channel": 9,
          "note": 42,
          "velocity": 80
        },
        {
          "delta_time": 120,
          "type": "note_off",
          "channel": 9,
          "note": 42,
          "velocity": 0
        },
        {
          "delta_time": 0,
          "type": "note_on",
          "channel": 9,
          "note": 42,
          "velocity": 90
        },
        {
          "delta_time": 120,
          "type": "note_off",
          "channel": 9,
          "note": 42,
          "velocity": 0
        },
        {
          "delta_time": 0,
          "type": "note_on",
          "channel": 9,
          "note": 42,
          "velocity": 80
        },
        {
          "delta_time": 120,
          "type": "note_off",
          "channel": 9,
          "note": 42,
          "velocity": 0
        },
        {
          "delta_time": 0,
          "type": "note_on",
          "channel": 9,
          "note": 42,
          "velocity": 90
        },
        {
          "delta_time": 120,
          "type": "note_off",
          "channel": 9,
          "note": 42,
          "velocity": 0
        },
        {
          "delta_time": 0,
          "type": "note_on",
          "channel": 9,
          "note": 42,
          "velocity": 80
        },
        {
          "delta_time": 120,
          "type": "note_off",
          "channel": 9,
          "note": 42,
          "velocity": 0
        },
        {
          "delta_time": 0,
          "type": "note_on",
          "channel": 9,
          "note": 42,
          "velocity": 90
        },
        {
          "delta_time": 120,
          "type": "note_off",
          "channel": 9,
          "note": 42,
          "velocity": 0
        },
        {
          "delta_time": 0,
          "type": "note_on",
          "channel": 9,
          "note": 42,
          "velocity": 80
        },
        {
          "delta_time": 120,
          "type": "note_off",
          "channel": 9,
          "note": 42,
          "velocity": 0
        },
        {
          "delta_time": 0,
          "type": "note_on",
          "channel": 9,
          "note": 42,
          "velocity": 90
        },
        {
          "delta_time": 120,
          "type": "note_off",
          "channel": 9,
          "note": 42,
          "velocity": 0
        },
        {
          "delta_time": 0,
          "type": "note_on",
          "channel": 9,
          "note": 42,
          "velocity": 80
        },
        {
          "delta_time": 120,
          "type": "note_off",
          "channel": 9,
          "note": 42,
          "velocity": 0
        },
        {
          "delta_time": 0,
          "type": "note_on",
          "channel": 9,
          "note": 42,
          "velocity": 90
        },
        {
          "delta_time": 120,
          "type": "note_off",
          "channel": 9,
          "note": 42,
          "velocity": 0
        },
        {
          "delta_time": 0,
          "type": "note_on",
          "channel": 9,
          "note": 42,
          "velocity": 80
        },
        {
          "delta_time": 120,
          "type": "note_off",
          "channel": 9,
          "note": 42,
          "velocity": 0
        },
        {
          "delta_time": 0,
          "type": "note_on",
          "channel": 9,
          "note": 42,
          "velocity": 90
        },
        {
          "delta_time": 120,
          "type": "note_off",
          "channel": 9,
          "note": 42,
          "velocity": 0
        },
        {
          "delta_time": 0,
          "type": "note_on",
          "channel": 9,
          "note": 42,
          "velocity": 80
        },
        {
          "delta_time": 120,
          "type": "note_off",
          "channel": 9,
          "note": 42,
          "velocity": 0
        },
        {
          "delta_time": 0,
          "type": "note_on",
          "channel": 9,
          "note": 42,
          "velocity": 90
        },
        {
          "delta_time": 120,
          "type": "note_off",
          "channel": 9,
          "note": 42,
          "velocity": 0
        },
        {
          "delta_time": 0,
          "type": "note_on",
          "channel": 9,
          "note": 42,
          "velocity": 80
        },
        {
          "delta_time": 120,
          "type": "note_off",
          "channel": 9,
          "note": 42,
          "velocity": 0
        },
        {
          "delta_time": 0,
          "type": "note_on",
          "channel": 9,
          "note": 42,
          "velocity": 90
        },
        {
          "delta_time": 120,
          "type": "note_off",
          "channel": 9,
          "note": 42,
          "velocity": 0
        },
        {
          "delta_time": 0,
          "type": "note_on",
          "channel": 9,
          "note": 42,
          "velocity": 80
        },
        {
          "delta_time": 120,
          "type": "note_off",
          "channel": 9,
          "note": 42,
          "velocity": 0
        }
      ]
    },
    {
      "name": "Rumble Bass",
      "events": [
        {
          "delta_time": 0,
          "type": "note_on",
          "channel": 1,
          "note": 43,
          "velocity": 100
        },
        {
          "delta_time": 120,
          "type": "note_off",
          "channel": 1,
          "note": 43,
          "velocity": 0
        },
        {
          "delta_time": 0,
          "type": "note_on",
          "channel": 1,
          "note": 43,
          "velocity": 100
        },
        {
          "delta_time": 120,
          "type": "note_off",
          "channel": 1,
          "note": 43,
          "velocity": 0
        },
        {
          "delta_time": 0,
          "type": "note_on",
          "channel": 1,
          "note": 43,
          "velocity": 100
        },
        {
          "delta_time": 120,
          "type": "note_off",
          "channel": 1,
          "note": 43,
          "velocity": 0
        },
        {
          "delta_time": 0,
          "type": "note_on",
          "channel": 1,
          "note": 43,
          "velocity": 100
        },
        {
          "delta_time": 120,
          "type": "note_off",
          "channel": 1,
          "note": 43,
          "velocity": 0
        },
        {
          "delta_time": 0,
          "type": "note_on",
          "channel": 1,
          "note": 43,
          "velocity": 100
        },
        {
          "delta_time": 120,
          "type": "note_off",
          "channel": 1,
          "note": 43,
          "velocity": 0
        },
        {
          "delta_time": 0,
          "type": "note_on",
          "channel": 1,
          "note": 43,
          "velocity": 100
        },
        {
          "delta_time": 120,
          "type": "note_off",
          "channel": 1,
          "note": 43,
          "velocity": 0
        },
        {
          "delta_time": 0,
          "type": "note_on",
          "channel": 1,
          "note": 43,
          "velocity": 100
        },
        {
          "delta_time": 120,
          "type": "note_off",
          "channel": 1,
          "note": 43,
          "velocity": 0
        },
        {
          "delta_time": 0,
          "type": "note_on",
          "channel": 1,
          "note": 43,
          "velocity": 100
        },
        {
          "delta_time": 120,
          "type": "note_off",
          "channel": 1,
          "note": 43,
          "velocity": 0
        },
        {
          "delta_time": 0,
          "type": "note_on",
          "channel": 1,
          "note": 43,
          "velocity": 100
        },
        {
          "delta_time": 120,
          "type": "note_off",
          "channel": 1,
          "note": 43,
          "velocity": 0
        },
        {
          "delta_time": 0,
          "type": "note_on",
          "channel": 1,
          "note": 43,
          "velocity": 100
        },
        {
          "delta_time": 120,
          "type": "note_off",
          "channel": 1,
          "note": 43,
          "velocity": 0
        },
        {
          "delta_time": 0,
          "type": "note_on",
          "channel": 1,
          "note": 43,
          "velocity": 100
        },
        {
          "delta_time": 120,
          "type": "note_off",
          "channel": 1,
          "note": 43,
          "velocity": 0
        },
        {
          "delta_time": 0,
          "type": "note_on",
          "channel": 1,
          "note": 43,
          "velocity": 100
        },
        {
          "delta_time": 120,
          "type": "note_off",
          "channel": 1,
          "note": 43,
          "velocity": 0
        },
        {
          "delta_time": 0,
          "type": "note_on",
          "channel": 1,
          "note": 43,
          "velocity": 100
        },
        {
          "delta_time": 120,
          "type": "note_off",
          "channel": 1,
          "note": 43,
          "velocity": 0
        },
        {
          "delta_time": 0,
          "type": "note_on",
          "channel": 1,
          "note": 43,
          "velocity": 100
        },
        {
          "delta_time": 120,
          "type": "note_off",
          "channel": 1,
          "note": 43,
          "velocity": 0
        },
        {
          "delta_time": 0,
          "type": "note_on",
          "channel": 1,
          "note": 43,
          "velocity": 100
        },
        {
          "delta_time": 120,
          "type": "note_off",
          "channel": 1,
          "note": 43,
          "velocity": 0
        },
        {
          "delta_time": 0,
          "type": "note_on",
          "channel": 1,
          "note": 43,
          "velocity": 100
        },
        {
          "delta_time": 120,
          "type": "note_off",
          "channel": 1,
          "note": 43,
          "velocity": 0
        },
        {
          "delta_time": 0,
          "type": "note_on",
          "channel": 1,
          "note": 38,
          "velocity": 100
        },
        {
          "delta_time": 120,
          "type": "note_off",
          "channel": 1,
          "note": 38,
          "velocity": 0
        },
        {
          "delta_time": 0,
          "type": "note_on",
          "channel": 1,
          "note": 38,
          "velocity": 100
        },
        {
          "delta_time": 120,
          "type": "note_off",
          "channel": 1,
          "note": 38,
          "velocity": 0
        },
        {
          "delta_time": 0,
          "type": "note_on",
          "channel": 1,
          "note": 38,
          "velocity": 100
        },
        {
          "delta_time": 120,
          "type": "note_off",
          "channel": 1,
          "note": 38,
          "velocity": 0
        },
        {
          "delta_time": 0,
          "type": "note_on",
          "channel": 1,
          "note": 38,
          "velocity": 100
        },
        {
          "delta_time": 120,
          "type": "note_off",
          "channel": 1,
          "note": 38,
          "velocity": 0
        },
        {
          "delta_time": 0,
          "type": "note_on",
          "channel": 1,
          "note": 38,
          "velocity": 100
        },
        {
          "delta_time": 120,
          "type": "note_off",
          "channel": 1,
          "note": 38,
          "velocity": 0
        },
        {
          "delta_time": 0,
          "type": "note_on",
          "channel": 1,
          "note": 38,
          "velocity": 100
        },
        {
          "delta_time": 120,
          "type": "note_off",
          "channel": 1,
          "note": 38,
          "velocity": 0
        },
        {
          "delta_time": 0,
          "type": "note_on",
          "channel": 1,
          "note": 38,
          "velocity": 100
        },
        {
          "delta_time": 120,
          "type": "note_off",
          "channel": 1,
          "note": 38,
          "velocity": 0
        },
        {
          "delta_time": 0,
          "type": "note_on",
          "channel": 1,
          "note": 38,
          "velocity": 100
        },
        {
          "delta_time": 120,
          "type": "note_off",
          "channel": 1,
          "note": 38,
          "velocity": 0
        },
        {
          "delta_time": 0,
          "type": "note_on",
          "channel": 1,
          "note": 38,
          "velocity": 100
        },
        {
          "delta_time": 120,
          "type": "note_off",
          "channel": 1,
          "note": 38,
          "velocity": 0
        },
        {
          "delta_time": 0,
          "type": "note_on",
          "channel": 1,
          "note": 38,
          "velocity": 100
        },
        {
          "delta_time": 120,
          "type": "note_off",
          "channel": 1,
          "note": 38,
          "velocity": 0
        },
        {
          "delta_time": 0,
          "type": "note_on",
          "channel": 1,
          "note": 38,
          "velocity": 100
        },
        {
          "delta_time": 120,
          "type": "note_off",
          "channel": 1,
          "note": 38,
          "velocity": 0
        },
        {
          "delta_time": 0,
          "type": "note_on",
          "channel": 1,
          "note": 38,
          "velocity": 100
        },
        {
          "delta_time": 120,
          "type": "note_off",
          "channel": 1,
          "note": 38,
          "velocity": 0
        },
        {
          "delta_time": 0,
          "type": "note_on",
          "channel": 1,
          "note": 38,
          "velocity": 100
        },
        {
          "delta_time": 120,
          "type": "note_off",
          "channel": 1,
          "note": 38,
          "velocity": 0
        },
        {
          "delta_time": 0,
          "type": "note_on",
          "channel": 1,
          "note": 38,
          "velocity": 100
        },
        {
          "delta_time": 120,
          "type": "note_off",
          "channel": 1,
          "note": 38,
          "velocity": 0
        },
        {
          "delta_time": 0,
          "type": "note_on",
          "channel": 1,
          "note": 38,
          "velocity": 100
        },
        {
          "delta_time": 120,
          "type": "note_off",
          "channel": 1,
          "note": 38,
          "velocity": 0
        },
        {
          "delta_time": 0,
          "type": "note_on",
          "channel": 1,
          "note": 38,
          "velocity": 100
        },
        {
          "delta_time": 120,
          "type": "note_off",
          "channel": 1,
          "note": 38,
          "velocity": 0
        },
        {
          "delta_time": 0,
          "type": "note_on",
          "channel": 1,
          "note": 43,
          "velocity": 100
        },
        {
          "delta_time": 120,
          "type": "note_off",
          "channel": 1,
          "note": 43,
          "velocity": 0
        },
        {
          "delta_time": 0,
          "type": "note_on",
          "channel": 1,
          "note": 43,
          "velocity": 100
        },
        {
          "delta_time": 120,
          "type": "note_off",
          "channel": 1,
          "note": 43,
          "velocity": 0
        },
        {
          "delta_time": 0,
          "type": "note_on",
          "channel": 1,
          "note": 43,
          "velocity": 100
        },
        {
          "delta_time": 120,
          "type": "note_off",
          "channel": 1,
          "note": 43,
          "velocity": 0
        },
        {
          "delta_time": 0,
          "type": "note_on",
          "channel": 1,
          "note": 43,
          "velocity": 100
        },
        {
          "delta_time": 120,
          "type": "note_off",
          "channel": 1,
          "note": 43,
          "velocity": 0
        },
        {
          "delta_time": 0,
          "type": "note_on",
          "channel": 1,
          "note": 43,
          "velocity": 100
        },
        {
          "delta_time": 120,
          "type": "note_off",
          "channel": 1,
          "note": 43,
          "velocity": 0
        },
        {
          "delta_time": 0,
          "type": "note_on",
          "channel": 1,
          "note": 43,
          "velocity": 100
        },
        {
          "delta_time": 120,
          "type": "note_off",
          "channel": 1,
          "note": 43,
          "velocity": 0
        },
        {
          "delta_time": 0,
          "type": "note_on",
          "channel": 1,
          "note": 43,
          "velocity": 100
        },
        {
          "delta_time": 120,
          "type": "note_off",
          "channel": 1,
          "note": 43,
          "velocity": 0
        },
        {
          "delta_time": 0,
          "type": "note_on",
          "channel": 1,
          "note": 43,
          "velocity": 100
        },
        {
          "delta_time": 120,
          "type": "note_off",
          "channel": 1,
          "note": 43,
          "velocity": 0
        },
        {
          "delta_time": 0,
          "type": "note_on",
          "channel": 1,
          "note": 43,
          "velocity": 100
        },
        {
          "delta_time": 120,
          "type": "note_off",
          "channel": 1,
          "note": 43,
          "velocity": 0
        },
        {
          "delta_time": 0,
          "type": "note_on",
          "channel": 1,
          "note": 43,
          "velocity": 100
        },
        {
          "delta_time": 120,
          "type": "note_off",
          "channel": 1,
          "note": 43,
          "velocity": 0
        },
        {
          "delta_time": 0,
          "type": "note_on",
          "channel": 1,
          "note": 43,
          "velocity": 100
        },
        {
          "delta_time": 120,
          "type": "note_off",
          "channel": 1,
          "note": 43,
          "velocity": 0
        },
        {
          "delta_time": 0,
          "type": "note_on",
          "channel": 1,
          "note": 43,
          "velocity": 100
        },
        {
          "delta_time": 120,
          "type": "note_off",
          "channel": 1,
          "note": 43,
          "velocity": 0
        },
        {
          "delta_time": 0,
          "type": "note_on",
          "channel": 1,
          "note": 43,
          "velocity": 100
        },
        {
          "delta_time": 120,
          "type": "note_off",
          "channel": 1,
          "note": 43,
          "velocity": 0
        },
        {
          "delta_time": 0,
          "type": "note_on",
          "channel": 1,
          "note": 43,
          "velocity": 100
        },
        {
          "delta_time": 120,
          "type": "note_off",
          "channel": 1,
          "note": 43,
          "velocity": 0
        },
        {
          "delta_time": 0,
          "type": "note_on",
          "channel": 1,
          "note": 43,
          "velocity": 100
        },
        {
          "delta_time": 120,
          "type": "note_off",
          "channel": 1,
          "note": 43,
          "velocity": 0
        },
        {
          "delta_time": 0,
          "type": "note_on",
          "channel": 1,
          "note": 43,
          "velocity": 100
        },
        {
          "delta_time": 120,
          "type": "note_off",
          "channel": 1,
          "note": 43,
          "velocity": 0
        },
        {
          "delta_time": 0,
          "type": "note_on",
          "channel": 1,
          "note": 41,
          "velocity": 100
        },
        {
          "delta_time": 120,
          "type": "note_off",
          "channel": 1,
          "note": 41,
          "velocity": 0
        },
        {
          "delta_time": 0,
          "type": "note_on",
          "channel": 1,
          "note": 41,
          "velocity": 100
        },
        {
          "delta_time": 120,
          "type": "note_off",
          "channel": 1,
          "note": 41,
          "velocity": 0
        },
        {
          "delta_time": 0,
          "type": "note_on",
          "channel": 1,
          "note": 41,
          "velocity": 100
        },
        {
          "delta_time": 120,
          "type": "note_off",
          "channel": 1,
          "note": 41,
          "velocity": 0
        },
        {
          "delta_time": 0,
          "type": "note_on",
          "channel": 1,
          "note": 41,
          "velocity": 100
        },
        {
          "delta_time": 120,
          "type": "note_off",
          "channel": 1,
          "note": 41,
          "velocity": 0
        },
        {
          "delta_time": 0,
          "type": "note_on",
          "channel": 1,
          "note": 41,
          "velocity": 100
        },
        {
          "delta_time": 120,
          "type": "note_off",
          "channel": 1,
          "note": 41,
          "velocity": 0
        },
        {
          "delta_time": 0,
          "type": "note_on",
          "channel": 1,
          "note": 41,
          "velocity": 100
        },
        {
          "delta_time": 120,
          "type": "note_off",
          "channel": 1,
          "note": 41,
          "velocity": 0
        },
        {
          "delta_time": 0,
          "type": "note_on",
          "channel": 1,
          "note": 41,
          "velocity": 100
        },
        {
          "delta_time": 120,
          "type": "note_off",
          "channel": 1,
          "note": 41,
          "velocity": 0
        },
        {
          "delta_time": 0,
          "type": "note_on",
          "channel": 1,
          "note": 41,
          "velocity": 100
        },
        {
          "delta_time": 120,
          "type": "note_off",
          "channel": 1,
          "note": 41,
          "velocity": 0
        },
        {
          "delta_time": 0,
          "type": "note_on",
          "channel": 1,
          "note": 41,
          "velocity": 100
        },
        {
          "delta_time": 120,
          "type": "note_off",
          "channel": 1,
          "note": 41,
          "velocity": 0
        },
        {
          "delta_time": 0,
          "type": "note_on",
          "channel": 1,
          "note": 41,
          "velocity": 100
        },
        {
          "delta_time": 120,
          "type": "note_off",
          "channel": 1,
          "note": 41,
          "velocity": 0
        },
        {
          "delta_time": 0,
          "type": "note_on",
          "channel": 1,
          "note": 41,
          "velocity": 100
        },
        {
          "delta_time": 120,
          "type": "note_off",
          "channel": 1,
          "note": 41,
          "velocity": 0
        },
        {
          "delta_time": 0,
          "type": "note_on",
          "channel": 1,
          "note": 41,
          "velocity": 100
        },
        {
          "delta_time": 120,
          "type": "note_off",
          "channel": 1,
          "note": 41,
          "velocity": 0
        },
        {
          "delta_time": 0,
          "type": "note_on",
          "channel": 1,
          "note": 41,
          "velocity": 100
        },
        {
          "delta_time": 120,
          "type": "note_off",
          "channel": 1,
          "note": 41,
          "velocity": 0
        },
        {
          "delta_time": 0,
          "type": "note_on",
          "channel": 1,
          "note": 41,
          "velocity": 100
        },
        {
          "delta_time": 120,
          "type": "note_off",
          "channel": 1,
          "note": 41,
          "velocity": 0
        },
        {
          "delta_time": 0,
          "type": "note_on",
          "channel": 1,
          "note": 41,
          "velocity": 100
        },
        {
          "delta_time": 120,
          "type": "note_off",
          "channel": 1,
          "note": 41,
          "velocity": 0
        },
        {
          "delta_time": 0,
          "type": "note_on",
          "channel": 1,
          "note": 41,
          "velocity": 100
        },
        {
          "delta_time": 120,
          "type": "note_off",
          "channel": 1,
          "note": 41,
          "velocity": 0
        }
      ]
    },
    {
      "name": "Afro-Perc",
      "events": [
        {
          "delta_time": 360,
          "type": "note_on",
          "channel": 9,
          "note": 63,
          "velocity": 95
        },
        {
          "delta_time": 120,
          "type": "note_off",
          "channel": 9,
          "note": 63,
          "velocity": 0
        },
        {
          "delta_time": 240,
          "type": "note_on",
          "channel": 9,
          "note": 62,
          "velocity": 90
        },
        {
          "delta_time": 120,
          "type": "note_off",
          "channel": 9,
          "note": 62,
          "velocity": 0
        },
        {
          "delta_time": 120,
          "type": "note_on",
          "channel": 9,
          "note": 62,
          "velocity": 90
        },
        {
          "delta_time": 120,
          "type": "note_off",
          "channel": 9,
          "note": 62,
          "velocity": 0
        },
        {
          "delta_time": 240,
          "type": "note_on",
          "channel": 9,
          "note": 63,
          "velocity": 95
        },
        {
          "delta_time": 120,
          "type": "note_off",
          "channel": 9,
          "note": 63,
          "velocity": 0
        },
        {
          "delta_time": 240,
          "type": "note_on",
          "channel": 9,
          "note": 62,
          "velocity": 90
        },
        {
          "delta_time": 120,
          "type": "note_off",
          "channel": 9,
          "note": 62,
          "velocity": 0
        },
        {
          "delta_time": 240,
          "type": "note_on",
          "channel": 9,
          "note": 62,
          "velocity": 90
        },
        {
          "delta_time": 120,
          "type": "note_off",
          "channel": 9,
          "note": 62,
          "velocity": 0
        },
        {
          "delta_time": 360,
          "type": "note_on",
          "channel": 9,
          "note": 63,
          "velocity": 95
        },
        {
          "delta_time": 120,
          "type": "note_off",
          "channel": 9,
          "note": 63,
          "velocity": 0
        },
        {
          "delta_time": 240,
          "type": "note_on",
          "channel": 9,
          "note": 62,
          "velocity": 90
        },
        {
          "delta_time": 120,
          "type": "note_off",
          "channel": 9,
          "note": 62,
          "velocity": 0
        },
        {
          "delta_time": 120,
          "type": "note_on",
          "channel": 9,
          "note": 62,
          "velocity": 90
        },
        {
          "delta_time": 120,
          "type": "note_off",
          "channel": 9,
          "note": 62,
          "velocity": 0
        },
        {
          "delta_time": 240,
          "type": "note_on",
          "channel": 9,
          "note": 63,
          "velocity": 95
        },
        {
          "delta_time": 120,
          "type": "note_off",
          "channel": 9,
          "note": 63,
          "velocity": 0
        },
        {
          "delta_time": 240,
          "type": "note_on",
          "channel": 9,
          "note": 62,
          "velocity": 90
        },
        {
          "delta_time": 120,
          "type": "note_off",
          "channel": 9,
          "note": 62,
          "velocity": 0
        },
        {
          "delta_time": 240,
          "type": "note_on",
          "channel": 9,
          "note": 62,
          "velocity": 90
        },
        {
          "delta_time": 120,
          "type": "note_off",
          "channel": 9,
          "note": 62,
          "velocity": 0
        },
        {
          "delta_time": 360,
          "type": "note_on",
          "channel": 9,
          "note": 63,
          "velocity": 95
        },
        {
          "delta_time": 120,
          "type": "note_off",
          "channel": 9,
          "note": 63,
          "velocity": 0
        },
        {
          "delta_time": 240,
          "type": "note_on",
          "channel": 9,
          "note": 62,
          "velocity": 90
        },
        {
          "delta_time": 120,
          "type": "note_off",
          "channel": 9,
          "note": 62,
          "velocity": 0
        },
        {
          "delta_time": 120,
          "type": "note_on",
          "channel": 9,
          "note": 62,
          "velocity": 90
        },
        {
          "delta_time": 120,
          "type": "note_off",
          "channel": 9,
          "note": 62,
          "velocity": 0
        },
        {
          "delta_time": 240,
          "type": "note_on",
          "channel": 9,
          "note": 63,
          "velocity": 95
        },
        {
          "delta_time": 120,
          "type": "note_off",
          "channel": 9,
          "note": 63,
          "velocity": 0
        },
        {
          "delta_time": 240,
          "type": "note_on",
          "channel": 9,
          "note": 62,
          "velocity": 90
        },
        {
          "delta_time": 120,
          "type": "note_off",
          "channel": 9,
          "note": 62,
          "velocity": 0
        },
        {
          "delta_time": 240,
          "type": "note_on",
          "channel": 9,
          "note": 62,
          "velocity": 90
        },
        {
          "delta_time": 120,
          "type": "note_off",
          "channel": 9,
          "note": 62,
          "velocity": 0
        },
        {
          "delta_time": 360,
          "type": "note_on",
          "channel": 9,
          "note": 63,
          "velocity": 95
        },
        {
          "delta_time": 120,
          "type": "note_off",
          "channel": 9,
          "note": 63,
          "velocity": 0
        },
        {
          "delta_time": 240,
          "type": "note_on",
          "channel": 9,
          "note": 62,
          "velocity": 90
        },
        {
          "delta_time": 120,
          "type": "note_off",
          "channel": 9,
          "note": 62,
          "velocity": 0
        },
        {
          "delta_time": 120,
          "type": "note_on",
          "channel": 9,
          "note": 62,
          "velocity": 90
        },
        {
          "delta_time": 120,
          "type": "note_off",
          "channel": 9,
          "note": 62,
          "velocity": 0
        },
        {
          "delta_time": 240,
          "type": "note_on",
          "channel": 9,
          "note": 63,
          "velocity": 95
        },
        {
          "delta_time": 120,
          "type": "note_off",
          "channel": 9,
          "note": 63,
          "velocity": 0
        },
        {
          "delta_time": 240,
          "type": "note_on",
          "channel": 9,
          "note": 62,
          "velocity": 90
        },
        {
          "delta_time": 120,
          "type": "note_off",
          "channel": 9,
          "note": 62,
          "velocity": 0
        },
        {
          "delta_time": 240,
          "type": "note_on",
          "channel": 9,
          "note": 62,
          "velocity": 90
        },
        {
          "delta_time": 120,
          "type": "note_off",
          "channel": 9,
          "note": 62,
          "velocity": 0
        }
      ]
    },
    {
      "name": "Haunting Lead",
      "events": [
        {
          "delta_time": 0,
          "type": "note_on",
          "channel": 2,
          "note": 70,
          "velocity": 90
        },
        {
          "delta_time": 240,
          "type": "note_off",
          "channel": 2,
          "note": 70,
          "velocity": 0
        },
        {
          "delta_time": 240,
          "type": "note_on",
          "channel": 2,
          "note": 73,
          "velocity": 90
        },
        {
          "delta_time": 240,
          "type": "note_off",
          "channel": 2,
          "note": 73,
          "velocity": 0
        },
        {
          "delta_time": 240,
          "type": "note_on",
          "channel": 2,
          "note": 70,
          "velocity": 90
        },
        {
          "delta_time": 240,
          "type": "note_off",
          "channel": 2,
          "note": 70,
          "velocity": 0
        },
        {
          "delta_time": 240,
          "type": "note_on",
          "channel": 2,
          "note": 75,
          "velocity": 90
        },
        {
          "delta_time": 240,
          "type": "note_off",
          "channel": 2,
          "note": 75,
          "velocity": 0
        },
        {
          "delta_time": 240,
          "type": "note_on",
          "channel": 2,
          "note": 70,
          "velocity": 90
        },
        {
          "delta_time": 240,
          "type": "note_off",
          "channel": 2,
          "note": 70,
          "velocity": 0
        },
        {
          "delta_time": 240,
          "type": "note_on",
          "channel": 2,
          "note": 73,
          "velocity": 90
        },
        {
          "delta_time": 240,
          "type": "note_off",
          "channel": 2,
          "note": 73,
          "velocity": 0
        },
        {
          "delta_time": 240,
          "type": "note_on",
          "channel": 2,
          "note": 70,
          "velocity": 90
        },
        {
          "delta_time": 240,
          "type": "note_off",
          "channel": 2,
          "note": 70,
          "velocity": 0
        },
        {
          "delta_time": 240,
          "type": "note_on",
          "channel": 2,
          "note": 75,
          "velocity": 90
        },
        {
          "delta_time": 240,
          "type": "note_off",
          "channel": 2,
          "note": 75,
          "velocity": 0
        },
        {
          "delta_time": 240,
          "type": "note_on",
          "channel": 2,
          "note": 70,
          "velocity": 90
        },
        {
          "delta_time": 240,
          "type": "note_off",
          "channel": 2,
          "note": 70,
          "velocity": 0
        },
        {
          "delta_time": 240,
          "type": "note_on",
          "channel": 2,
          "note": 73,
          "velocity": 90
        },
        {
          "delta_time": 240,
          "type": "note_off",
          "channel": 2,
          "note": 73,
          "velocity": 0
        },
        {
          "delta_time": 240,
          "type": "note_on",
          "channel": 2,
          "note": 70,
          "velocity": 90
        },
        {
          "delta_time": 240,
          "type": "note_off",
          "channel": 2,
          "note": 70,
          "velocity": 0
        },
        {
          "delta_time": 240,
          "type": "note_on",
          "channel": 2,
          "note": 75,
          "velocity": 90
        },
        {
          "delta_time": 240,
          "type": "note_off",
          "channel": 2,
          "note": 75,
          "velocity": 0
        },
        {
          "delta_time": 240,
          "type": "note_on",
          "channel": 2,
          "note": 70,
          "velocity": 90
        },
        {
          "delta_time": 240,
          "type": "note_off",
          "channel": 2,
          "note": 70,
          "velocity": 0
        },
        {
          "delta_time": 240,
          "type": "note_on",
          "channel": 2,
          "note": 73,
          "velocity": 90
        },
        {
          "delta_time": 240,
          "type": "note_off",
          "channel": 2,
          "note": 73,
          "velocity": 0
        },
        {
          "delta_time": 240,
          "type": "note_on",
          "channel": 2,
          "note": 70,
          "velocity": 90
        },
        {
          "delta_time": 240,
          "type": "note_off",
          "channel": 2,
          "note": 70,
          "velocity": 0
        },
        {
          "delta_time": 240,
          "type": "note_on",
          "channel": 2,
          "note": 75,
          "velocity": 90
        },
        {
          "delta_time": 240,
          "type": "note_off",
          "channel": 2,
          "note": 75,
          "velocity": 0
        },
        {
          "delta_time": 240,
          "type": "note_on",
          "channel": 2,
          "note": 70,
          "velocity": 90
        },
        {
          "delta_time": 240,
          "type": "note_off",
          "channel": 2,
          "note": 70,
          "velocity": 0
        },
        {
          "delta_time": 240,
          "type": "note_on",
          "channel": 2,
          "note": 73,
          "velocity": 90
        },
        {
          "delta_time": 240,
          "type": "note_off",
          "channel": 2,
          "note": 73,
          "velocity": 0
        },
        {
          "delta_time": 240,
          "type": "note_on",
          "channel": 2,
          "note": 70,
          "velocity": 90
        },
        {
          "delta_time": 240,
          "type": "note_off",
          "channel": 2,
          "note": 70,
          "velocity": 0
        },
        {
          "delta_time": 240,
          "type": "note_on",
          "channel": 2,
          "note": 75,
          "velocity": 90
        },
        {
          "delta_time": 240,
          "type": "note_off",
          "channel": 2,
          "note": 75,
          "velocity": 0
        },
        {
          "delta_time": 240,
          "type": "note_on",
          "channel": 2,
          "note": 70,
          "velocity": 90
        },
        {
          "delta_time": 240,
          "type": "note_off",
          "channel": 2,
          "note": 70,
          "velocity": 0
        },
        {
          "delta_time": 240,
          "type": "note_on",
          "channel": 2,
          "note": 73,
          "velocity": 90
        },
        {
          "delta_time": 240,
          "type": "note_off",
          "channel": 2,
          "note": 73,
          "velocity": 0
        },
        {
          "delta_time": 240,
          "type": "note_on",
          "channel": 2,
          "note": 70,
          "velocity": 90
        },
        {
          "delta_time": 240,
          "type": "note_off",
          "channel": 2,
          "note": 70,
          "velocity": 0
        },
        {
          "delta_time": 240,
          "type": "note_on",
          "channel": 2,
          "note": 75,
          "velocity": 90
        },
        {
          "delta_time": 240,
          "type": "note_off",
          "channel": 2,
          "note": 75,
          "velocity": 0
        }
      ]
    }
  ]
}